# Blender v2.79 (sub 0) OBJ File: 'Sunflowers set.blend'
# www.blender.org
mtllib Sunflowers set.mtl
o sunflower_stick_dried
v 0.464284 -0.014643 0.453543
v 0.464284 -0.071440 -0.457990
v 0.464284 2.012604 0.445929
v 0.460318 2.130502 -0.465604
v 0.504524 1.400747 0.514278
v 0.409436 1.343950 -0.397255
v 0.904023 -0.041972 0.014928
v -0.009277 -0.041972 0.014928
v 0.908134 2.108972 0.004335
v 0.006471 2.159784 0.004335
v 0.900569 1.258318 0.072033
v 0.003801 1.372747 0.064903
v 0.281942 1.721804 0.036818
v 0.134668 2.060878 0.279105
v 0.342103 1.958646 -0.270841
v 0.187802 2.258361 -0.081192
v 0.300893 1.837422 -0.121346
v 0.258278 2.124146 0.120941
v 0.216438 1.857866 0.133038
v 0.253983 2.106019 -0.174621
v 0.325325 1.982860 0.009309
v 0.692808 1.601440 -0.230111
v 0.250301 1.861459 -0.516858
v 0.836183 2.116084 0.015309
v 0.393676 2.376104 -0.271438
v 0.775722 1.862346 -0.121476
v 0.333215 2.122366 -0.408223
v 0.482781 1.735034 -0.387560
v 0.626156 2.249678 -0.142139
v 0.466638 1.971036 -0.140104
v 0.919980 1.996001 0.142799
v 0.646203 2.492576 -0.271034
v 0.303485 1.930550 0.472114
v 0.029707 2.427125 0.058282
v 0.617801 1.978634 0.321870
v 0.344024 2.475209 -0.091962
v 0.789160 2.259647 -0.049704
v 0.172665 2.194196 0.279611
v 0.453984 2.118066 0.005094
vt 0.000000 0.500000
vt 1.000000 0.500000
vt 1.000000 1.000000
vt 0.000000 1.000000
vt 0.000000 0.000000
vt 1.000000 0.000000
vt 0.000000 0.500000
vt 1.000000 0.500000
vt 1.000000 1.000000
vt 0.000000 1.000000
vt 0.000000 0.000000
vt 1.000000 0.000000
vt 0.500000 0.500000
vt 1.000000 0.500000
vt 1.000000 1.000000
vt 0.500000 1.000000
vt 0.500000 0.000000
vt 1.000000 0.000000
vt 0.000000 0.000000
vt 0.000000 0.500000
vt 0.000000 1.000000
vt 0.500000 0.500000
vt 1.000000 0.500000
vt 1.000000 1.000000
vt 0.500000 1.000000
vt 0.500000 0.000000
vt 1.000000 0.000000
vt 0.000000 0.000000
vt 0.000000 0.500000
vt 0.000000 1.000000
vt 0.500000 0.500000
vt 1.000000 0.500000
vt 1.000000 1.000000
vt 0.500000 1.000000
vt 0.500000 0.000000
vt 1.000000 0.000000
vt 0.000000 0.000000
vt 0.000000 0.500000
vt 0.000000 1.000000
vn 0.9984 -0.0129 -0.0547
vn 0.9986 0.0074 -0.0525
vn -0.0032 -0.0781 -0.9969
vn 0.0064 0.0394 -0.9992
vn -0.9635 -0.1082 -0.2447
vn -0.9267 -0.1517 -0.3437
vn -0.8992 -0.4357 0.0398
vn -0.9464 -0.3230 0.0021
vn -0.8774 0.1114 -0.4665
vn -0.7990 0.0986 -0.5932
vn -0.9390 0.1221 -0.3215
vn -0.9828 -0.0352 -0.1813
vn -0.9827 -0.1802 -0.0432
vn 0.6072 0.1890 -0.7717
vn 0.7640 0.0928 -0.6385
vn 0.6934 -0.1061 -0.7126
vn 0.5400 -0.0101 -0.8416
vn 0.6505 0.3827 -0.6560
vn 0.7956 0.2785 -0.5379
vn 0.4724 0.4706 -0.7452
vn 0.4263 0.2910 -0.8565
vn 0.3566 0.0880 -0.9301
vn 0.2683 0.7004 0.6614
vn 0.3460 0.5560 0.7557
vn 0.4957 0.5673 0.6576
vn 0.4330 0.7058 0.5606
vn 0.1029 0.6695 0.7356
vn 0.1749 0.5246 0.8332
vn 0.0268 0.7913 0.6108
vn 0.1997 0.8213 0.5345
vn 0.3558 0.8220 0.4447
usemtl sunflower_stick_dried
s off
f 5/1/1 6/2/1 4/3/1 3/4/1
f 1/5/2 2/6/2 6/2/2 5/1/2
f 11/7/3 12/8/3 10/9/3 9/10/3
f 7/11/4 8/12/4 12/8/4 11/7/4
usemtl sunflower_flower
s 1
f 21/13/5 18/14/6 16/15/7 20/16/8
f 19/17/9 14/18/10 18/14/6 21/13/5
f 13/19/11 19/17/9 21/13/5 17/20/12
f 17/20/12 21/13/5 20/16/8 15/21/13
f 30/22/14 27/23/15 25/24/16 29/25/17
f 28/26/18 23/27/19 27/23/15 30/22/14
f 22/28/20 28/26/18 30/22/14 26/29/21
f 26/29/21 30/22/14 29/25/17 24/30/22
f 39/31/23 36/32/24 34/33/25 38/34/26
f 37/35/27 32/36/28 36/32/24 39/31/23
f 31/37/29 37/35/27 39/31/23 35/38/30
f 35/38/30 39/31/23 38/34/26 33/39/31
o sunflower_stick_green_sunflower_stick_green.001
v -0.322388 0.018068 0.553724
v -0.665031 -0.027239 -0.546008
v -0.622748 1.896733 0.481860
v -0.665030 1.919306 -0.546008
v -1.059978 0.090297 -0.001100
v 0.039753 -0.020940 -0.001100
v -1.059978 1.987492 -0.001100
v 0.039753 1.987492 -0.001100
v -0.520861 -0.001002 0.003858
v -0.520861 1.981155 0.003858
v -0.640340 1.706898 -0.123075
v -0.793226 2.084538 0.015672
v -0.230285 1.878091 -0.154022
v -0.390279 2.268052 -0.056646
v -0.500787 1.970514 -0.000174
v -0.356169 1.765051 0.250263
v -0.202746 2.140679 0.000857
v -0.879517 1.842623 0.187286
v -0.726663 2.302829 -0.025207
v -0.540533 1.957246 0.014687
vt 0.500000 0.000000
vt 1.000000 0.000000
vt 1.000000 1.000000
vt 0.500000 1.000000
vt 0.000000 0.000000
vt 1.000000 0.000000
vt 1.000000 1.000000
vt 0.000000 1.000000
vt 0.000000 0.000000
vt 0.000000 1.000000
vt 0.000000 0.000000
vt 1.000000 0.000000
vt 0.500000 0.500000
vt 0.000000 1.000000
vt 1.000000 1.000000
vt 0.000000 0.000000
vt 1.000000 0.000000
vt 0.500000 0.500000
vt 0.000000 1.000000
vt 1.000000 1.000000
vn 0.9673 -0.0000 -0.2536
vn 0.0000 -0.0000 1.0000
vn 0.9932 0.0756 -0.0885
vn -0.0930 0.4607 -0.8826
vn -0.0039 0.1278 -0.9918
vn -0.2071 0.2039 -0.9568
vn -0.4019 0.2766 -0.8729
vn -0.3151 -0.0627 -0.9470
vn -0.1393 0.7111 0.6891
vn -0.1698 0.3812 0.9087
vn 0.0252 0.4853 0.8740
vn 0.2206 0.5550 0.8020
vn 0.1800 0.2080 0.9614
usemtl sunflower_stick_green.001
s off
f 48/40/32 41/41/32 43/42/32 49/43/32
f 44/44/33 45/45/33 47/46/33 46/47/33
f 40/48/34 48/40/34 49/43/34 42/49/34
usemtl sunflower_flover_2.001
s 1
f 50/50/35 51/51/36 54/52/37
f 52/53/38 54/52/37 53/54/39
f 53/54/39 54/52/37 51/51/36
f 54/52/37 52/53/38 50/50/35
f 55/55/40 56/56/41 59/57/42
f 57/58/43 59/57/42 58/59/44
f 58/59/44 59/57/42 56/56/41
f 59/57/42 57/58/43 55/55/40
o sunflower_stick_joung_sunflower_stick_joung.001
v -1.951433 -0.001002 -0.043934
v -1.113605 0.122306 0.076607
v -1.951433 1.410959 -0.043934
v -1.113605 1.390260 0.076607
v -1.524388 -0.001002 -0.001100
v -1.524388 1.410959 -0.001100
v -1.524388 1.410959 -0.001100
v -1.524388 -0.001002 -0.001100
v -1.497314 1.264229 0.458544
v -1.353170 1.410959 -0.368278
v -1.497314 -0.001002 0.458544
v -1.353170 -0.001002 -0.368278
v -1.788320 1.460962 0.087173
v -1.446005 1.344609 0.246342
v -1.593972 1.606400 -0.224483
v -1.251657 1.490046 -0.065313
v -1.526516 1.400438 0.003680
vt 0.500000 0.000000
vt 1.000000 0.000000
vt 1.000000 1.000000
vt 0.500000 1.000000
vt 0.000000 0.000000
vt 0.000000 1.000000
vt 0.500000 0.000000
vt 1.000000 0.000000
vt 1.000000 1.000000
vt 0.500000 1.000000
vt 0.000000 0.000000
vt 0.000000 1.000000
vt 0.000000 0.000000
vt 1.000000 0.000000
vt 0.500000 0.500000
vt 0.000000 1.000000
vt 1.000000 1.000000
vn -0.1859 -0.0000 0.9826
vn -0.0998 -0.0000 0.9950
vn -0.9983 0.0000 0.0588
vn -0.9063 0.0000 -0.4226
vn 0.3230 0.8637 0.3867
vn 0.0077 0.9751 0.2217
vn 0.0850 0.8989 0.4297
vn 0.1394 0.7552 0.6405
vn -0.1438 0.8417 0.5203
usemtl sunflower_stick_joung.001
s off
f 64/60/45 61/61/45 63/62/45 65/63/45
f 60/64/46 64/60/46 65/63/46 62/65/46
f 67/66/47 70/67/47 68/68/47 66/69/47
f 71/70/48 67/66/48 66/69/48 69/71/48
usemtl sunflower_flower_3.001
s 1
f 72/72/49 73/73/50 76/74/51
f 74/75/52 76/74/51 75/76/53
f 76/74/51 74/75/52 72/72/49
f 75/76/53 76/74/51 73/73/50
o sunflower_stick_OLD
v 2.016541 -0.001002 -0.001099
v 0.935969 -0.001002 -0.001100
v 1.935677 2.127891 -0.001100
v 0.935969 2.337155 -0.001100
v 1.386735 -0.001002 -0.639634
v 1.386735 -0.001002 0.475362
v 1.582510 2.324342 -0.391609
v 1.482464 2.163447 0.601625
v 1.342374 1.168077 -0.639634
v 1.342373 1.074314 0.458275
v 1.968243 1.168077 -0.001100
v 0.887670 1.168077 -0.001100
v 1.407898 1.884583 0.492012
v 1.399429 1.784124 -0.606624
v 1.344728 1.460346 -0.649974
v 1.344728 1.460346 0.448298
v 1.595099 1.875319 0.261034
v 1.601311 2.200648 0.360113
v 1.309549 1.932683 0.088517
v 1.294742 2.247473 0.216513
v 1.593194 2.035470 0.317468
v 1.297135 2.087565 0.159409
v 1.447313 1.901488 0.181670
v 1.443015 2.221547 0.295207
v 1.468568 2.073254 0.206240
v 1.049865 1.927632 0.176963
v 1.279628 2.394000 0.241129
v 1.306090 1.861867 -0.266441
v 1.379438 2.384119 -0.301132
v 1.139747 2.170018 0.192976
v 1.373796 2.113406 -0.265672
v 1.167404 1.899114 -0.052008
v 1.346139 2.384310 -0.020688
v 1.306154 2.121329 -0.002401
v 1.943748 1.994631 0.020230
v 1.584487 2.426669 -0.421675
v 1.466016 2.087886 0.405825
v 1.244593 2.520496 0.089969
v 1.798159 2.192314 -0.169515
v 1.389346 2.321620 0.279105
v 1.738923 2.058687 0.244235
v 1.448581 2.455247 -0.134645
v 1.522092 2.170774 -0.000668
vt 0.000000 0.500000
vt 1.000000 0.500000
vt 1.000000 1.000000
vt 0.000000 1.000000
vt 0.000000 0.750000
vt 1.000000 0.750000
vt 1.000000 1.000000
vt 0.000000 1.000000
vt 0.000000 0.000000
vt 1.000000 0.000000
vt 1.000000 0.500000
vt 0.000000 0.500000
vt 0.000000 0.000000
vt 1.000000 0.000000
vt 0.000000 0.625000
vt 1.000000 0.625000
vt 0.500000 0.500000
vt 1.000000 0.500000
vt 1.000000 1.000000
vt 0.500000 1.000000
vt 0.000000 0.500000
vt 0.000000 1.000000
vt 0.000000 0.000000
vt 0.500000 0.000000
vt 1.000000 0.000000
vt 0.500000 0.500000
vt 1.000000 0.500000
vt 1.000000 1.000000
vt 0.500000 1.000000
vt 0.000000 0.500000
vt 0.000000 1.000000
vt 0.000000 0.000000
vt 0.500000 0.000000
vt 1.000000 0.000000
vt 0.500000 0.500000
vt 1.000000 0.500000
vt 1.000000 1.000000
vt 0.500000 1.000000
vt 0.000000 0.500000
vt 0.000000 1.000000
vt 0.000000 0.000000
vt 0.500000 0.000000
vt 1.000000 0.000000
vn 0.0000 -0.0000 -1.0000
vn -0.9496 0.3116 -0.0326
vn -0.9992 -0.0395 -0.0017
vn -0.9877 0.1560 -0.0033
vn -1.0000 0.0070 0.0003
vn -0.4916 -0.2962 0.8188
vn -0.4619 -0.3898 0.7967
vn -0.3767 -0.4244 0.8234
vn -0.4047 -0.3361 0.8504
vn -0.5123 -0.2018 0.8348
vn -0.4295 -0.2426 0.8698
vn -0.5907 -0.1586 0.7911
vn -0.5715 -0.2550 0.7800
vn -0.5463 -0.3499 0.7610
vn -0.8556 0.3158 -0.4100
vn -0.9259 0.1966 -0.3226
vn -0.9809 0.0654 -0.1831
vn -0.9281 0.2319 -0.2911
vn -0.7735 0.4175 -0.4768
vn -0.8261 0.4020 -0.3948
vn -0.7127 0.4291 -0.5549
vn -0.7698 0.3827 -0.5108
vn -0.8226 0.3321 -0.4615
vn 0.5858 0.7316 0.3487
vn 0.6733 0.6215 0.4004
vn 0.7849 0.5478 0.2893
vn 0.7015 0.6606 0.2673
vn 0.4713 0.8323 0.2916
vn 0.5988 0.7645 0.2385
vn 0.3494 0.8759 0.3329
vn 0.4540 0.7888 0.4142
vn 0.5545 0.6721 0.4907
usemtl sunflower_stick_OLD
s off
f 87/77/54 88/78/54 80/79/54 79/80/54
f 90/81/55 89/82/55 84/83/55 83/84/55
f 81/85/56 82/86/56 86/87/56 85/88/56
f 77/89/54 78/90/54 88/78/54 87/77/54
f 91/91/57 92/92/57 89/82/57 90/81/57
f 85/88/58 86/87/58 92/92/58 91/91/58
usemtl sunflower_flower.001
s 1
f 101/93/59 100/94/60 96/95/61 98/96/62
f 99/97/63 101/93/59 98/96/62 95/98/64
f 93/99/65 97/100/66 101/93/59 99/97/63
f 97/100/66 94/101/67 100/94/60 101/93/59
f 110/102/68 109/103/69 105/104/70 107/105/71
f 108/106/72 110/102/68 107/105/71 104/107/73
f 102/108/74 106/109/75 110/102/68 108/106/72
f 106/109/75 103/110/76 109/103/69 110/102/68
f 119/111/77 118/112/78 114/113/79 116/114/80
f 117/115/81 119/111/77 116/114/80 113/116/82
f 111/117/83 115/118/84 119/111/77 117/115/81
f 115/118/84 112/119/85 118/112/78 119/111/77
